<?xml version="1.0" encoding="UTF-8" standalone="no"?>
<!-- Generator: Adobe Illustrator 19.1.0, SVG Export Plug-In . SVG Version: 6.00 Build 0)  -->

<svg
   xmlns:dc="http://purl.org/dc/elements/1.1/"
   xmlns:cc="http://creativecommons.org/ns#"
   xmlns:rdf="http://www.w3.org/1999/02/22-rdf-syntax-ns#"
   xmlns:svg="http://www.w3.org/2000/svg"
   xmlns="http://www.w3.org/2000/svg"
   xmlns:sodipodi="http://sodipodi.sourceforge.net/DTD/sodipodi-0.dtd"
   xmlns:inkscape="http://www.inkscape.org/namespaces/inkscape"
   version="1.1"
   id="Layer_1"
   x="0px"
   y="0px"
   viewBox="0 0 64 64"
   style="enable-background:new 0 0 64 64;"
   xml:space="preserve"
   sodipodi:docname="icon-m-backimage.svg"
   inkscape:version="0.92.3 (2405546, 2018-03-11)"><metadata
   id="metadata15"><rdf:RDF><cc:Work
       rdf:about=""><dc:format>image/svg+xml</dc:format><dc:type
         rdf:resource="http://purl.org/dc/dcmitype/StillImage" /></cc:Work></rdf:RDF></metadata><defs
   id="defs13">
	
	
	
	
</defs><sodipodi:namedview
   pagecolor="#ffffff"
   bordercolor="#666666"
   borderopacity="1"
   objecttolerance="10"
   gridtolerance="10"
   guidetolerance="10"
   inkscape:pageopacity="0"
   inkscape:pageshadow="2"
   inkscape:window-width="1920"
   inkscape:window-height="1055"
   id="namedview11"
   showgrid="false"
   inkscape:zoom="3.6875"
   inkscape:cx="63.573875"
   inkscape:cy="46.066776"
   inkscape:window-x="1920"
   inkscape:window-y="0"
   inkscape:window-maximized="1"
   inkscape:current-layer="Layer_1" />
<rect
   y="0"
   x="0"
   height="64"
   width="64"
   style="opacity:0;fill:#ffffff"
   id="icon-m-file-image_1_" /><path
   inkscape:connector-curvature="0"
   id="path5"
   d="m 34.90312,46.568613 c -0.478367,0 -0.854054,-0.130463 -0.957942,-0.170327 -3.168577,-1.233365 -5.513299,-3.930823 -6.259841,-7.082488 -2.790474,1.564357 -6.21273,1.747972 -9.272587,0.439711 -0.332199,-0.100264 -0.985726,-0.378103 -1.348125,-1.081157 -0.219855,-0.426423 -0.391391,-1.130686 0.03503,-2.074131 0.593127,-1.321549 1.552277,-2.531963 2.773562,-3.495944 0.508567,-0.398639 1.064245,-0.748959 1.654956,-1.044918 -1.199541,-1.101693 -2.170771,-2.544042 -2.75665,-4.148262 -0.855262,-2.344723 -0.815398,-4.731725 0.112344,-6.722505 0.08456,-0.175159 1.085989,-2.322978 1.085989,-2.322978 0.721175,-1.292557 2.000444,-1.74918 3.221729,-1.215246 v 0 c 0,0 4.218326,1.715356 4.322214,1.760052 2.867785,1.338461 5.055468,4.095111 5.875698,7.217784 2.849666,-1.507581 6.264674,-1.826492 9.163867,-0.771911 0.05919,0.02174 0.146168,0.05315 4.343958,1.95454 0.877006,0.347903 1.233365,0.896334 1.380741,1.299805 0.136504,0.378103 0.215023,0.974854 -0.159456,1.709316 -0.153415,0.432463 -0.806942,2.278283 -0.843182,2.371298 -1.478588,3.574464 -5.86845,5.910731 -9.927321,5.665507 0.189656,0.626951 0.312871,1.263565 0.364815,1.897764 0.135296,1.554692 -0.274215,3.302664 -0.665606,4.327046 -0.22348,0.593127 -0.630575,1.041293 -1.177797,1.286517 -0.335824,0.151 -0.670439,0.200527 -0.966398,0.200527 z"
   style="fill:#ffffff;stroke-width:1"
   sodipodi:nodetypes="cccccccccccccccccccccccccc" /><path
   inkscape:connector-curvature="0"
   id="path7"
   d="M 50.125,56 H 13.875 C 11.738,56 10,54.262 10,52.125 V 11.875 C 10,9.738 11.738,8 13.875,8 h 36.25 C 52.262,8 54,9.738 54,11.875 v 40.25 C 54,54.262 52.262,56 50.125,56 Z M 13.875,10 C 12.841,10 12,10.841 12,11.875 v 40.25 C 12,53.159 12.841,54 13.875,54 h 36.25 C 51.159,54 52,53.159 52,52.125 V 11.875 C 52,10.841 51.159,10 50.125,10 Z"
   style="opacity:1;fill:#ffffff" />
</svg>