<?xml version="1.0" encoding="UTF-8" standalone="no"?>
<svg
   xmlns:dc="http://purl.org/dc/elements/1.1/"
   xmlns:cc="http://creativecommons.org/ns#"
   xmlns:rdf="http://www.w3.org/1999/02/22-rdf-syntax-ns#"
   xmlns:svg="http://www.w3.org/2000/svg"
   xmlns="http://www.w3.org/2000/svg"
   xmlns:sodipodi="http://sodipodi.sourceforge.net/DTD/sodipodi-0.dtd"
   xmlns:inkscape="http://www.inkscape.org/namespaces/inkscape"
   version="1.1"
   id="Layer_1"
   x="0px"
   y="0px"
   width="64px"
   height="64px"
   viewBox="0 0 64 64"
   style="enable-background:new 0 0 64 64;"
   xml:space="preserve"
   sodipodi:docname="icon-m-gestures.svg"
   inkscape:version="1.0.1 (1.0.1+r73)"><metadata
   id="metadata17"><rdf:RDF><cc:Work
       rdf:about=""><dc:format>image/svg+xml</dc:format><dc:type
         rdf:resource="http://purl.org/dc/dcmitype/StillImage" /></cc:Work></rdf:RDF></metadata><defs
   id="defs15">
	
	
	
	
</defs><sodipodi:namedview
   pagecolor="#ffffff"
   bordercolor="#666666"
   borderopacity="1"
   objecttolerance="10"
   gridtolerance="10"
   guidetolerance="10"
   inkscape:pageopacity="0"
   inkscape:pageshadow="2"
   inkscape:window-width="1920"
   inkscape:window-height="1056"
   id="namedview13"
   showgrid="false"
   inkscape:snap-bbox="true"
   inkscape:bbox-nodes="true"
   inkscape:zoom="8.0764854"
   inkscape:cx="26.681512"
   inkscape:cy="21.042986"
   inkscape:window-x="1920"
   inkscape:window-y="0"
   inkscape:window-maximized="1"
   inkscape:current-layer="Layer_1"
   inkscape:document-rotation="0" />
<rect
   id="icon-m-swipe_2_"
   style="opacity:0;fill:#ffffff"
   width="64"
   height="64"
   x="0"
   y="2" />
<rect
   id="icon-m-speaker-mute_1_"
   style="opacity:0;fill:#ffffff"
   width="64"
   height="64"
   x="0"
   y="2" /><rect
   id="icon-m-vibration"
   style="opacity:0;fill:#ffffff"
   width="64"
   height="64"
   x="0"
   y="2" /><path
   style="opacity:0.6;fill:#ffffff"
   d="M 41.963,56 H 22.037 C 19.26,56 17,53.74 17,50.963 V 17.037 C 17,14.26 19.26,12 22.037,12 H 41.963 C 44.74,12 47,14.26 47,17.037 V 50.963 C 47,53.74 44.74,56 41.963,56 Z M 22.037,14 C 20.362,14 19,15.362 19,17.037 V 50.963 C 19,52.638 20.362,54 22.037,54 H 41.963 C 43.638,54 45,52.638 45,50.963 V 17.037 C 45,15.362 43.638,14 41.963,14 Z"
   id="path3-5" /><rect
   id="icon-m-mobile-network_10_"
   style="opacity:0;fill:#ffffff"
   width="64"
   height="64"
   x="0"
   y="2" /><g
   id="g1101"
   transform="translate(-2,-2)"
   style="opacity:1"><path
     style="fill:none;stroke:#ffffff;stroke-width:2;stroke-miterlimit:4;stroke-dasharray:none"
     d="m 27.999158,3.245063 c 0.47909,0 0.920831,0.280756 1.212534,0.770792 l 2.91446,4.895855 c 0.294279,0.495188 0.328408,1.016133 0.09337,1.429541 -0.235037,0.413407 -0.69996,0.650376 -1.27564,0.650376 h -5.887518 c -0.576324,0 -1.040602,-0.236969 -1.275639,-0.65102 -0.235038,-0.413408 -0.201553,-0.934353 0.09337,-1.428897 l 2.913816,-4.895855 c 0.29106,-0.490036 0.732801,-0.770792 1.211247,-0.770792 z"
     id="path17-2"
     sodipodi:nodetypes="sccssscccs" /><path
     style="fill:#ffffff"
     d="m 27.999664,11.132345 c 0.553,0 1,0.448 1,1 v 6.047 c 0,0.552 -0.447,1 -1,1 -0.553,0 -1,-0.448 -1,-1 v -6.047 c 0,-0.553 0.447,-1 1,-1 z"
     id="path19-9"
     sodipodi:nodetypes="sssssss" /><path
     style="fill:none;stroke:#ffffff;stroke-width:2;stroke-miterlimit:4;stroke-dasharray:none"
     d="m 27.999158,26.062818 c 0.47909,0 0.920831,-0.280756 1.212534,-0.770792 l 2.91446,-4.895855 c 0.294279,-0.495188 0.328408,-1.016133 0.09337,-1.429541 -0.235037,-0.413407 -0.69996,-0.650376 -1.27564,-0.650376 h -5.887518 c -0.576324,0 -1.040602,0.236969 -1.275639,0.65102 -0.235038,0.413408 -0.201553,0.934353 0.09337,1.428897 l 2.913816,4.895855 c 0.29106,0.490036 0.732801,0.770792 1.211247,0.770792 z"
     id="path17-2-0"
     sodipodi:nodetypes="sccssscccs" /></g><g
   id="g1096"
   transform="rotate(90,34.109917,40.267458)"
   style="opacity:1"><path
     style="fill:none;stroke:#ffffff;stroke-width:2;stroke-miterlimit:4;stroke-dasharray:none"
     d="m 37.391591,17.068857 c 0.47909,0 0.920831,0.280756 1.212534,0.770792 l 2.91446,4.895855 c 0.294279,0.495188 0.328408,1.016133 0.09337,1.429541 -0.235037,0.413407 -0.69996,0.650376 -1.27564,0.650376 h -5.887518 c -0.576324,0 -1.040602,-0.236969 -1.275639,-0.65102 -0.235038,-0.413408 -0.201553,-0.934353 0.09337,-1.428897 l 2.913816,-4.895855 c 0.29106,-0.490036 0.732801,-0.770792 1.211247,-0.770792 z"
     id="path17-2-6"
     sodipodi:nodetypes="sccssscccs" /><path
     style="fill:#ffffff"
     d="m 37.392097,24.956139 c 0.553,0 1,0.448 1,1 v 6.047 c 0,0.552 -0.447,1 -1,1 -0.553,0 -1,-0.448 -1,-1 v -6.047 c 0,-0.553 0.447,-1 1,-1 z"
     id="path19-9-2"
     sodipodi:nodetypes="sssssss" /><path
     style="fill:none;stroke:#ffffff;stroke-width:2;stroke-miterlimit:4;stroke-dasharray:none"
     d="m 37.391591,39.886612 c 0.47909,0 0.920831,-0.280756 1.212534,-0.770792 l 2.91446,-4.895855 c 0.294279,-0.495188 0.328408,-1.016133 0.09337,-1.429541 -0.235037,-0.413407 -0.69996,-0.650376 -1.27564,-0.650376 h -5.887518 c -0.576324,0 -1.040602,0.236969 -1.275639,0.65102 -0.235038,0.413408 -0.201553,0.934353 0.09337,1.428897 l 2.913816,4.895855 c 0.29106,0.490036 0.732801,0.770792 1.211247,0.770792 z"
     id="path17-2-0-6"
     sodipodi:nodetypes="sccssscccs" /></g></svg>
